HIERARCHY
ROOT Hips
{
     OFFSET 1.88212 96.90440 -13.34250
     CHANNELS 6 Xposition Yposition Zposition Zrotation Xrotation Yrotation
     JOINT Spine
     {
          OFFSET 0.00000 11.89050 0.00000
          CHANNELS 3 Zrotation Xrotation Yrotation
          JOINT Spine1
          {
               OFFSET -0.00000 25.65740 0.12766
               CHANNELS 3 Zrotation Xrotation Yrotation
               JOINT HEad
               {
                    OFFSET 0.00000 8.73416 0.01134
                    CHANNELS 3 Zrotation Xrotation Yrotation
                    End Site
                    {
                         OFFSET -0.29000 12.77420 2.51395
                    }
               }
               JOINT LeftShoulder1
               {
                    OFFSET 8.99000 -0.36225 -0.22000
                    CHANNELS 3 Zrotation Xrotation Yrotation
                    JOINT LeftArm
                    {
                         OFFSET 10.28270 -0.00338 0.32212
                         CHANNELS 3 Zrotation Xrotation Yrotation
                         JOINT LeftForeArm
                         {
                              OFFSET 32.76690 0.09914 -1.42434
                              CHANNELS 3 Zrotation Xrotation Yrotation
                              JOINT LeftHand
                              {
                                   OFFSET 27.56430 0.08536 1.02216
                                   CHANNELS 3 Zrotation Xrotation Yrotation
                                   End Site
                                   {
                                        OFFSET 16.74430 -0.60000 1.50291
                                   }
                              }
                         }
                    }
               }
               JOINT RightShoulder
               {
                    OFFSET -8.99000 -0.36225 -0.22000
                    CHANNELS 3 Zrotation Xrotation Yrotation
                    JOINT RightArm
                    {
                         OFFSET -10.28270 -0.00338 0.32212
                         CHANNELS 3 Zrotation Xrotation Yrotation
                         JOINT RightForeArm
                         {
                              OFFSET -32.89710 0.09914 -1.42434
                              CHANNELS 3 Zrotation Xrotation Yrotation
                              JOINT RightHand
                              {
                                   OFFSET -27.49210 0.08536 1.02216
                                   CHANNELS 3 Zrotation Xrotation Yrotation
                                   End Site
                                   {
                                        OFFSET -16.63120 -0.60000 1.50291
                                   }
                              }
                         }
                    }
               }
          }
     }
     JOINT LeftUpLeg
     {
          OFFSET 8.94580 -8.66707 0.10165
          CHANNELS 3 Zrotation Xrotation Yrotation
          JOINT LeftLeg
          {
               OFFSET 0.00000 -44.42270 1.37270
               CHANNELS 3 Zrotation Xrotation Yrotation
               JOINT LeftFoot
               {
                    OFFSET -0.25355 -42.09240 -1.46059
                    CHANNELS 3 Zrotation Xrotation Yrotation
                    JOINT LeftToes
                    {
                         OFFSET -0.04000 -4.41509 8.49910
                         CHANNELS 3 Zrotation Xrotation Yrotation
                         End Site
                         {
                              OFFSET 0.08000 -0.04745 9.77979
                         }
                    }
               }
          }
     }
     JOINT RightUpLeg
     {
          OFFSET -8.94580 -8.66707 0.10165
          CHANNELS 3 Zrotation Xrotation Yrotation
          JOINT RightLeg
          {
               OFFSET 0.00000 -44.42270 1.37270
               CHANNELS 3 Zrotation Xrotation Yrotation
               JOINT RightFoot
               {
                    OFFSET 0.25355 -42.09240 -1.46059
                    CHANNELS 3 Zrotation Xrotation Yrotation
                    JOINT RightToes
                    {
                         OFFSET 0.04000 -4.41509 8.49910
                         CHANNELS 3 Zrotation Xrotation Yrotation
                         End Site
                         {
                              OFFSET -0.08000 -0.13745 9.77979
                         }
                    }
               }
          }
     }
}
MOTION
Frames: 21
Frame Time: 0.01667
-333.61139 88.11681 13.92737 5.88325 -2.99244 29.75607 4.48376 16.90906 9.76405 0.00730 -0.00271 -0.01284 -25.25633 21.18192 23.19826 10.42904 -3.42409 0.76658 14.97151 -77.09430 36.76940 -40.01364 46.96817 -104.44602 4.71923 10.51360 7.00504 32.03486 -0.80763 7.20237 37.99239 -10.38021 59.72921 19.76501 34.50558 106.75798 -5.77556 14.95231 -1.46831 23.14906 -27.90811 7.39917 -6.13230 27.55522 12.77226 7.30839 -0.00726 -0.04522 -28.73755 -4.42439 -8.56433 -26.96160 2.11431 -4.00280 -11.11692 33.99183 35.33021 14.00042 -0.08514 0.03569 -16.26365 -50.84593 -27.40726 
-336.15332 87.56123 13.48010 5.46390 -2.39403 30.51954 4.46833 16.53661 10.13204 0.00596 -0.00075 -0.01384 -25.35645 19.74714 23.06539 9.97569 -2.77972 -0.24606 18.13419 -77.84605 40.67725 -40.30094 47.31537 -104.36241 4.19084 10.94846 -0.01040 31.06953 -0.54952 6.17457 39.76814 -10.08599 61.50850 19.93123 34.64816 106.14421 -5.64759 14.53575 -1.74853 24.22991 -29.09137 7.45648 -5.90117 26.87977 10.10784 9.46091 0.04418 -0.01820 -30.06620 -3.98009 -7.07867 -26.47854 6.35678 0.37670 -5.02176 26.99809 25.48554 13.66172 -0.09581 -0.01221 -9.60022 -41.71224 -27.22845 
-338.57440 87.07121 13.12521 5.08812 -1.98209 31.18565 4.58857 16.26690 10.34217 0.00440 -0.00045 -0.01470 -25.57671 18.43951 23.23883 9.41812 -2.05780 -1.14854 21.61111 -78.70167 44.98538 -40.79876 47.85167 -104.04585 5.10999 9.60648 4.17982 30.28192 -0.14533 5.18344 41.27519 -9.83573 63.13621 20.10628 34.87627 105.53617 -5.72792 14.22617 -1.92232 24.82609 -30.00244 7.39803 -4.48076 26.35211 5.05080 10.60753 0.04965 -0.00804 -17.38008 4.59887 -11.10184 -26.13670 10.07779 4.47433 0.42277 21.73404 15.84130 9.67168 -0.17444 0.08368 -9.43686 -43.39072 -22.20329 
-340.83008 86.62316 12.88282 4.76574 -1.75996 31.78017 4.83290 16.09336 10.37432 0.00358 0.00034 -0.01526 -25.92119 17.33362 23.72043 8.87909 -1.28779 -1.97184 25.51225 -79.60094 49.86041 -41.44618 48.59405 -103.71722 4.72569 9.79744 -0.27807 29.50327 0.33744 4.22735 42.72864 -9.55792 64.58713 20.28376 35.12195 104.91965 -5.85488 13.86911 -2.06829 25.00190 -30.59992 7.20619 -3.15648 25.30862 0.60839 11.92112 0.04939 -0.02888 -27.41366 2.33093 -3.94440 -25.95048 13.22700 8.28776 5.56313 17.29827 7.17229 8.63385 -0.14500 0.01528 -8.30712 -40.95778 -18.56133 
-342.88129 86.22810 12.74732 4.49820 -1.72554 32.32846 5.21029 15.98229 10.22397 0.00322 -0.00042 -0.01427 -26.37669 16.50933 24.48549 8.45783 -0.64266 -2.59670 28.63475 -80.49667 53.98943 -42.27536 49.36341 -103.10571 5.29491 9.20644 1.95467 28.92330 0.76535 3.44700 43.95399 -9.20906 65.65356 20.43741 35.34730 104.31906 -6.09927 13.57906 -1.98455 24.85759 -30.84137 6.90606 -1.83886 24.02757 -3.23728 13.20979 0.04114 -0.02891 -28.57091 4.43973 -1.45483 -25.90651 15.82515 11.79593 10.23640 13.34407 0.05662 5.08179 -0.19478 0.04386 -7.31890 -41.76372 -14.06196 
-344.79935 85.99346 12.65797 4.27348 -1.85034 32.82614 5.67176 15.90920 9.93034 0.00034 0.00007 -0.01311 -26.83822 15.92097 25.46428 7.93582 0.03184 -3.03417 30.95432 -81.50751 57.07481 -43.12867 50.10087 -102.41766 4.89214 9.37627 -0.75420 28.34314 1.28239 2.80341 45.16075 -8.84053 66.48360 20.53176 35.54379 103.72923 -6.10068 13.18189 -2.12002 24.55301 -30.72809 6.56967 -0.61202 22.67511 -6.38750 14.48499 0.03241 -0.02537 -32.61894 4.40814 3.30163 -25.21144 17.12484 14.36068 13.56237 10.79682 -4.83237 4.18238 -0.14510 0.02302 -8.43392 -41.68649 -11.49405 
-346.55322 85.90392 12.61446 4.07138 -2.10229 33.24576 6.17246 15.84938 9.55917 -0.00206 0.00046 -0.01127 -27.28271 15.58048 26.60212 7.34258 0.66606 -3.27222 31.64134 -82.60798 58.25589 -43.93700 50.68898 -101.57120 5.25025 9.21401 0.60497 27.80736 1.82941 2.37150 46.24164 -8.49915 67.01389 20.56043 35.70713 103.12976 -6.02913 12.96581 -2.15197 24.31328 -30.43111 6.36098 -0.20420 22.76533 -7.30454 16.56157 0.00609 -0.00824 -34.20314 3.85291 4.73657 -23.94016 17.41070 15.95595 15.40711 9.70709 -7.49875 1.60130 -0.13675 0.03015 -8.14550 -42.17691 -10.08764 
-348.12289 86.00198 12.61454 3.87816 -2.45260 33.56859 6.67705 15.79268 9.15408 -0.00365 0.00104 -0.01005 -27.71569 15.49178 27.86453 6.71961 1.26707 -3.39059 30.93987 -83.69540 57.82842 -44.57383 51.09962 -100.80335 4.98408 9.66000 -1.01279 27.24985 2.37152 2.05546 47.21055 -8.13234 67.40044 20.52219 35.81810 102.50954 -5.74626 12.80007 -2.17456 24.25371 -30.09501 6.38535 -0.30352 23.58762 -6.31843 19.04765 -0.02297 0.01856 -36.67810 7.49669 20.42426 -22.24522 16.89103 16.61294 15.68892 10.14288 -8.14934 3.28069 -0.15189 0.02257 -10.76635 -41.53034 -10.31956 
-349.47867 86.28120 12.66658 3.69210 -2.86960 33.79100 7.15353 15.72667 8.74709 -0.00449 0.00138 -0.00858 -28.16291 15.65925 29.21092 6.08436 1.80968 -3.37079 28.63290 -84.73203 55.60723 -45.07595 51.33438 -100.06217 5.25364 9.77916 -0.14462 26.59649 2.89756 1.88785 48.08849 -7.77232 67.65137 20.42057 35.88003 101.90269 -5.49012 12.59542 -2.09452 24.40076 -29.80735 6.67942 -0.83252 24.88456 -3.90569 21.77395 -0.05114 0.04618 -36.98872 6.28361 10.43710 -20.21642 15.77877 16.38665 14.88323 12.01711 -7.26604 3.79518 -0.14879 0.01662 -11.51127 -40.97363 -11.32324 
-350.62973 86.70265 12.74642 3.49542 -3.32060 33.90156 7.59293 15.62728 8.37214 -0.00440 0.00133 -0.00734 -28.64466 16.03121 30.62218 5.47719 2.25889 -3.24091 24.78074 -85.61652 51.73510 -45.42072 51.45279 -99.50666 5.07978 10.26669 -1.17585 25.86008 3.33618 1.75554 48.86047 -7.33761 67.84144 20.30248 35.91380 101.32582 -5.19271 12.45052 -1.93628 24.78683 -29.60878 7.27309 -1.85713 26.51601 -0.51231 24.73350 -0.07053 0.07323 -38.35226 6.13149 9.81444 -18.04614 14.44568 15.33480 13.31949 13.40442 -5.74156 7.59061 -0.18212 -0.00555 -14.63055 -39.55749 -11.42919 
-351.59183 87.20211 12.84022 3.26442 -3.74657 33.92218 7.98612 15.44846 8.03960 -0.00407 0.00182 -0.00553 -29.16699 16.56739 32.06204 4.88824 2.66333 -2.97827 -26.77715 -90.00000 0.00000 -45.69984 51.50380 -99.02200 5.24509 10.40947 -0.59339 25.02231 3.78003 1.80618 49.52396 -7.06770 67.96982 20.21415 35.91836 100.76654 -4.93697 12.29578 -1.83642 25.26575 -29.40708 8.06625 -2.14625 26.87691 1.82848 26.73561 -0.03140 0.03171 -39.66674 6.29171 4.29048 -16.34179 13.55947 14.41951 11.93761 15.33786 -4.42598 6.72914 -0.02496 -0.01481 -12.62594 -39.38115 -10.42901 
-352.38385 87.71993 12.94335 3.00713 -4.12822 33.89145 8.31539 15.19542 7.73609 -0.00442 0.00284 -0.00376 -29.72077 17.20551 33.49926 4.27908 3.05100 -2.62388 -26.53341 -90.00000 0.00000 -45.90880 51.52167 -98.62755 5.11590 10.85285 -1.15192 24.10716 4.23353 1.97589 50.07195 -6.94904 68.11836 20.17690 35.89174 100.21567 -4.69037 12.16252 -1.65863 25.65975 -29.07216 8.91943 -1.96244 26.42500 3.24478 28.05237 -0.01267 0.00856 -41.45238 7.33072 2.17167 -14.99650 12.89096 13.56671 10.63989 17.19463 -3.19939 8.74196 -0.03682 0.00741 0.35968 -29.07554 7.36032 
-353.03323 88.19888 13.07083 2.72783 -4.45302 33.84381 8.56873 14.85770 7.45084 -0.00483 0.00291 -0.00214 -30.29646 17.92996 34.90850 3.64514 3.34374 -2.18652 -26.16565 -90.00000 0.00000 -46.08128 51.54416 -98.27789 5.23094 10.87894 -0.77879 23.28256 4.62841 2.29848 50.34389 -7.00860 68.20484 20.19839 35.82177 99.66685 -4.50958 12.08590 -1.55622 25.86419 -28.52816 9.72296 -1.54068 25.44148 3.91775 28.83668 -0.00051 -0.00016 -42.72651 8.82927 -0.56665 -13.93441 12.30079 12.71397 9.46662 18.96572 -2.01413 9.89546 -0.03070 0.00639 -5.99881 -35.14316 0.52064 
-353.57990 88.66064 13.22809 2.43185 -4.70784 33.79491 8.73837 14.44706 7.18132 -0.00451 0.00442 -0.00096 -30.88176 18.67789 36.26354 3.10375 3.64612 -1.72572 -25.81758 -90.00000 0.00000 -46.26734 51.57878 -97.92603 5.18582 11.07252 -0.98003 22.20450 5.01922 2.62609 50.75282 -7.13851 68.40312 20.29712 35.71739 99.10112 -4.41756 11.83398 -1.37743 25.84645 -27.75806 10.43350 -1.02286 24.11775 4.02976 29.17462 0.00669 -0.00256 -42.52298 10.66614 -1.85027 -13.10382 11.68723 11.82415 8.44008 20.62638 -0.82031 11.78843 -0.02903 0.01372 3.15516 -20.91531 20.49483 
-354.02731 89.07087 13.41726 2.12521 -4.89552 33.75320 8.81917 13.97712 6.92105 -0.00460 0.00495 -0.00071 -31.47972 19.41440 37.56298 2.61402 3.93177 -1.31445 -25.43812 -90.00000 0.00000 -46.44189 51.61707 -97.56540 5.21243 11.03898 -0.73517 21.32475 5.39378 2.98267 50.89940 -7.39300 68.68502 20.46426 35.58308 98.52807 -4.38777 11.85556 -1.17668 25.62298 -26.78909 11.05875 -0.43481 22.58208 3.78859 29.07815 0.00994 -0.00318 -42.98424 10.99029 -2.73042 -12.48918 11.00361 10.88936 7.58349 22.22966 0.42265 13.54425 -0.02614 0.01417 -1.61501 -27.85366 12.87872 
-354.39349 89.45897 13.63629 1.81918 -5.01818 33.71299 8.80455 13.46933 6.67476 -0.00447 0.00552 -0.00056 -32.06698 20.09667 38.79655 2.19603 4.21631 -0.95029 -25.07667 -90.00000 0.00000 -46.65097 51.67989 -97.16186 5.19320 10.98385 -0.81213 20.58401 5.75768 3.32152 50.92284 -7.71172 69.09584 20.68313 35.41386 97.94315 -4.50938 11.63391 -0.94872 25.23888 -25.67402 11.61721 0.18905 20.91822 3.30420 28.57261 0.01095 -0.00253 -41.98485 11.42821 -2.99609 -12.07387 10.22332 9.91959 6.96626 23.78731 1.75330 15.31022 -0.02425 0.01603 5.26415 -7.56316 21.99039 
-354.70041 89.83675 13.87279 1.52683 -5.08619 33.66888 8.69485 12.94365 6.44649 -0.00413 0.00540 -0.00056 -32.62295 20.70128 39.95626 1.85462 4.46971 -0.61258 -24.73702 -90.00000 0.00000 -46.91579 51.75566 -96.68256 5.18979 10.88157 -0.62444 20.02903 6.09731 3.67932 50.81947 -8.09485 69.58392 20.91465 35.21546 97.37406 -4.62394 11.61642 -0.72220 24.73610 -24.47584 12.14112 0.86050 19.18532 2.60791 27.66603 0.01026 -0.00120 -40.71374 11.72272 -3.27260 -11.86233 9.34266 8.93099 6.52905 25.33566 3.20192 16.83892 -0.02493 0.01482 5.77806 -10.25045 18.51242 
-354.94894 90.20322 14.12155 1.26117 -5.11451 33.62668 8.50399 12.41779 6.22918 -0.00324 0.00512 -0.00062 -33.15069 21.21391 41.03878 1.62873 4.69679 -0.29319 -24.49240 -90.00000 0.00000 -47.17570 51.83099 -96.19621 5.21310 10.68704 -0.74842 19.44719 6.38734 3.96631 50.87362 -8.40462 70.17429 21.14449 35.02365 96.82533 -4.85278 11.30722 -0.51144 24.14558 -23.26366 12.65460 1.58970 17.44082 1.70750 26.37869 0.00819 0.00072 -38.85784 12.15285 -2.90342 -11.82926 8.38665 7.92174 6.28250 26.89632 4.74523 18.06154 -0.02194 0.01286 4.19751 -9.07846 18.58794 
-355.14645 90.53905 14.36896 1.03071 -5.11875 33.58599 8.24935 11.89889 6.02376 -0.00229 0.00429 -0.00048 -33.65769 21.66131 42.04028 1.48882 4.84908 0.02997 -24.33464 -90.00000 0.00000 -47.45720 51.93547 -95.66846 5.14110 10.41104 -0.62549 19.08250 6.61040 4.25582 50.88335 -8.66712 70.73561 21.35365 34.85908 96.29762 -5.11206 11.16591 -0.32156 23.49989 -22.10131 13.17107 2.37826 15.74131 0.64681 24.73333 0.00533 0.00275 -37.53817 12.14186 -2.74876 -11.96714 7.37384 6.92129 6.16545 28.49578 6.36182 18.84988 -0.02078 0.00975 4.16366 -10.49574 15.76621 
-355.32516 90.84727 14.60808 0.87584 -5.14261 33.56147 7.94825 11.43539 5.80982 -0.00082 0.00349 -0.00065 -34.13168 22.03726 42.96137 1.44957 4.94979 0.33154 -24.28294 -90.00000 0.00000 -47.73478 52.06470 -95.16512 5.07768 10.25906 -0.71869 18.84992 6.78123 4.53610 50.95910 -8.88374 71.26839 21.54041 34.71246 95.83649 -5.46167 10.92858 -0.07529 22.81339 -20.99494 13.65213 3.18602 14.13492 -0.50937 22.78028 0.00219 0.00475 -35.83442 11.94349 -2.23857 -12.26016 6.37306 5.95041 6.11746 30.07093 7.75358 18.96232 -0.02097 -0.00005 3.18076 -11.87083 14.44524 
-355.49371 91.12271 14.83424 0.79825 -5.20317 33.58215 7.62677 11.02028 5.57206 0.00003 0.00222 -0.00016 -34.57152 22.38869 43.79842 1.43679 4.96820 0.68929 -177.84338 -85.90413 -153.52264 -47.92607 52.19587 -94.76825 4.98574 10.04485 -0.67663 18.91487 6.91135 4.88563 50.94144 -9.12910 71.61453 21.70343 34.61042 95.49002 -5.77557 10.68044 0.07635 22.12376 -19.97177 14.06348 3.95383 12.67243 -1.70406 20.58288 -0.00102 0.00610 -33.82510 11.90979 -1.84121 -12.66521 5.42862 5.00347 6.11574 31.51843 8.68502 18.04613 -0.02460 -0.00746 -7.62927 -21.81983 -1.66763 
